<mxfile host="app.diagrams.net" modified="2023-06-13T16:13:01.469Z" agent="Mozilla/5.0 (Windows NT 10.0; Win64; x64) AppleWebKit/537.36 (KHTML, like Gecko) Chrome/113.0.0.0 Safari/537.36 OPR/99.0.0.0" version="21.3.8" etag="NGwYyc-OVv8BEpEeRbb1" type="github">
  <diagram name="Page-1" id="vm2wtDbsdhS4eQOxvrwx">
    <mxGraphModel>
      <root>
        <mxCell id="0" />
        <mxCell id="1" parent="0" />
      </root>
    </mxGraphModel>
  </diagram>
</mxfile>
